<svg width="63" height="63" viewBox="0 0 63 63" fill="none" xmlns="http://www.w3.org/2000/svg">
<circle cx="31.5" cy="31.5" r="31.5" fill="#FEF9EF"/>
<path fill-rule="evenodd" clip-rule="evenodd" d="M41.0913 11.1196C39.817 11.3533 38.7796 11.8169 37.7486 12.6135C36.3358 13.7051 35.2991 15.3362 34.9165 17.0698L34.7915 17.6363H24.8494H14.9073L14.4537 18.5678L14 19.4993L14.1965 19.7594C14.3046 19.9024 17.4102 23.9223 21.0978 28.6924L27.8025 37.3654L27.803 42.2398C27.8034 45.8543 27.7792 47.1973 27.7095 47.4358C27.5857 47.8587 27.0182 48.4348 26.6017 48.5605C26.376 48.6285 25.4302 48.6559 23.3116 48.6559H20.3382V49.828V51H28.9195H37.5007V49.8313V48.6626L34.403 48.6398C31.6916 48.6197 31.2762 48.6007 31.0728 48.4874C30.7315 48.2973 30.4173 47.956 30.257 47.6011C30.1247 47.3085 30.1157 46.9717 30.114 42.3158L30.1124 37.3431L34.542 31.6113C36.9782 28.4589 39.0035 25.8681 39.0427 25.854C39.0818 25.84 39.348 25.9237 39.6344 26.04C40.5727 26.4211 41.4776 26.5635 42.6956 26.5216C43.5621 26.4918 43.9053 26.4444 44.4491 26.2793C47.1987 25.4443 49.0758 23.4773 49.8632 20.6054C49.9731 20.2045 50.0019 19.8178 49.9999 18.7692C49.9969 17.2247 49.8879 16.6961 49.3229 15.4851C48.8934 14.5648 48.6172 14.1583 47.9106 13.4075C46.14 11.526 43.5724 10.6644 41.0913 11.1196ZM41.3487 13.4501C39.9503 13.7502 38.6881 14.6311 37.9255 15.8392C37.5833 16.3813 37.3197 16.969 37.2335 17.3823L37.1806 17.6363H40.0992H43.0177L43.4521 18.5795L43.8865 19.5228L42.2285 21.6663C41.3166 22.8452 40.5904 23.8425 40.6148 23.8825C40.7208 24.0566 41.8252 24.2191 42.646 24.1814C45.4486 24.0525 47.5941 21.8746 47.7191 19.0315C47.7646 17.9969 47.6157 17.2507 47.1946 16.4028C46.4986 15.0013 45.4271 14.0615 44.0039 13.6044C43.2394 13.3588 42.0864 13.2918 41.3487 13.4501ZM17.3919 20.078C18.366 21.3631 20.5193 24.1293 20.5705 24.1614C20.6088 24.1854 20.8423 24.1013 21.0896 23.9746C22.4467 23.2791 23.8787 23.2791 25.2616 23.9746C25.8061 24.2485 26.0511 24.4415 26.747 25.1446C27.7308 26.1386 28.0641 26.3322 28.8657 26.3749C29.666 26.4176 30.1573 26.1602 31.047 25.2323C31.8632 24.3808 32.4091 24.0048 33.2644 23.705C34.4069 23.3044 35.77 23.407 36.8025 23.9713C37.0322 24.0969 37.245 24.1996 37.2753 24.1996C37.3056 24.1996 38.0151 23.3118 38.8518 22.2267C39.6885 21.1417 40.4249 20.1922 40.4881 20.1171C40.5974 19.9869 40.041 19.9803 28.9605 19.9803C19.6582 19.9803 17.3327 20 17.3919 20.078ZM22.7477 25.8464C22.5702 25.8808 22.3393 25.9551 22.2345 26.0114C22.0445 26.1137 22.0517 26.1239 25.4529 30.5253C27.3277 32.9516 28.8924 34.9471 28.9301 34.9599C28.9906 34.9803 35.7322 26.3293 35.7936 26.1522C35.8409 26.016 35.2289 25.8284 34.7217 25.8236C33.9391 25.8163 33.47 26.0706 32.615 26.9659C31.4342 28.2023 30.5576 28.649 29.1879 28.7125C27.6388 28.7843 26.684 28.3722 25.3848 27.0713C24.2667 25.9516 23.6595 25.6696 22.7477 25.8464Z" fill="#FADDA7"/>
</svg>
