<svg width="44" height="44" viewBox="0 0 44 44" fill="none" xmlns="http://www.w3.org/2000/svg">
<g clip-path="url(#clip0_427_17053)">
<circle cx="22" cy="22" r="22" fill="#EFF1FE"/>
<path d="M19.9273 17.1421C19.9273 17.853 19.9273 18.5421 20.1516 19.1874C17.7945 21.9546 11.5711 29.2663 10.9914 29.8241C10.8762 29.9275 10.784 30.054 10.7209 30.1953C10.6578 30.3366 10.6251 30.4897 10.625 30.6445C10.625 31.1093 10.9094 31.5577 11.15 31.8093C11.5109 32.1866 13.0531 33.614 13.3375 33.3405C14.1797 32.5202 14.3492 32.3015 14.6938 31.9624C15.2133 31.4538 14.6391 30.4148 14.8195 29.9937C15 29.5726 15.1914 29.4905 15.5031 29.4249C15.8148 29.3593 16.3672 29.5835 16.7992 29.589C17.2531 29.5945 17.4992 29.403 17.8383 29.0859C18.1117 28.8343 18.3086 28.5991 18.3141 28.2327C18.325 27.7405 17.6141 27.0898 18.1445 26.5702C18.675 26.0507 19.4406 26.9093 20.0039 26.8437C20.5672 26.778 21.2508 25.996 21.3219 25.6624C21.393 25.3288 20.682 24.4702 20.7914 23.9835C20.8297 23.8195 21.1633 23.4366 21.4148 23.382C21.6664 23.3273 22.782 23.7593 23.0336 23.7046C23.3398 23.639 23.6953 23.3163 23.9852 23.1359C24.8328 23.5023 25.6039 23.6499 26.5938 23.6499C30.3398 23.6499 33.375 20.7296 33.375 17.1312C33.375 13.5327 30.3398 10.625 26.5938 10.625C22.8477 10.625 19.9273 13.5437 19.9273 17.1421ZM29.875 15.875C29.875 16.2211 29.7724 16.5595 29.5801 16.8472C29.3878 17.135 29.1145 17.3593 28.7947 17.4918C28.4749 17.6242 28.1231 17.6589 27.7836 17.5914C27.4441 17.5239 27.1323 17.3572 26.8876 17.1124C26.6428 16.8677 26.4761 16.5559 26.4086 16.2164C26.3411 15.8769 26.3758 15.5251 26.5082 15.2053C26.6407 14.8855 26.865 14.6122 27.1528 14.4199C27.4405 14.2276 27.7789 14.125 28.125 14.125C28.5891 14.125 29.0342 14.3094 29.3624 14.6376C29.6906 14.9658 29.875 15.4109 29.875 15.875Z" stroke="#C1C2FD" stroke-width="2" stroke-linejoin="round"/>
</g>
<defs>
<clipPath id="clip0_427_17053">
<rect width="44" height="44" fill="white"/>
</clipPath>
</defs>
</svg>
