<svg width="44" height="44" viewBox="0 0 44 44" fill="none" xmlns="http://www.w3.org/2000/svg">
<g clip-path="url(#clip0_427_17051)">
<circle cx="22" cy="22" r="22" fill="#FEF9EF"/>
<path fill-rule="evenodd" clip-rule="evenodd" d="M10.2316 9.24536C9.96227 9.37822 9.59291 9.69572 9.41085 9.95098L9.07984 10.4152L9.04 22.3686L9 34.3221L9.33847 34.8193C9.52456 35.0929 9.86632 35.4572 10.0981 35.629C10.5161 35.9389 10.6115 35.9416 22.3072 35.9813C35.4458 36.0258 34.7159 36.08 35.5403 34.9992L35.9423 34.4723L35.985 29.0457C36.0326 22.9799 36.0278 22.9467 35.0008 22.1623C34.4862 21.7692 34.4191 21.7591 32.047 21.713L29.6196 21.6656L29.5723 19.2229C29.5297 17.0147 29.495 16.7397 29.211 16.3594C28.5565 15.4819 28.1 15.3461 25.6209 15.2909L23.3582 15.2404L23.3077 12.9771C23.2513 10.4443 23.1028 9.97905 22.1452 9.33343C21.6498 8.9995 21.6066 8.99712 16.1838 9.00055C11.4579 9.00339 10.6555 9.03652 10.2316 9.24536ZM10.8259 10.8183C10.7034 10.9408 10.6468 11.6708 10.6468 13.132V15.2667H16.1686H21.6903V13.2416C21.6903 12.1279 21.6207 11.0867 21.5358 10.9278C21.3876 10.6509 21.1698 10.6391 16.1932 10.6391C12.3569 10.6391 10.9583 10.6859 10.8259 10.8183ZM10.6468 19.2971V21.6855H12.96H15.2731V19.2971V16.9087H12.96H10.6468V19.2971ZM16.9147 19.2971V21.6855H22.4365H27.9582V19.4516C27.9582 17.3958 27.9352 17.2055 27.6696 17.0632C27.4863 16.9651 25.4697 16.9087 22.1478 16.9087H16.9147V19.2971ZM10.6468 25.6413V27.9551H16.1686H21.6903V25.6413V23.3275H16.1686H10.6468V25.6413ZM23.3319 25.6413V27.9551H28.8536H34.3754V25.8758C34.3754 24.1847 34.3316 23.753 34.1409 23.562C33.9365 23.3577 33.2267 23.3275 28.6192 23.3275H23.3319V25.6413ZM10.6468 31.881C10.6468 33.3422 10.7034 34.0722 10.8259 34.1948C10.9484 34.3173 11.6782 34.3739 13.1391 34.3739H15.2731V32.0601V29.7464H12.96H10.6468V31.881ZM16.9147 32.0601V34.3739H22.4365H27.9582V32.0601V29.7464H22.4365H16.9147V32.0601ZM29.749 32.0601V34.3739H31.8277C33.5184 34.3739 33.95 34.3301 34.1409 34.1394C34.3316 33.9485 34.3754 33.5167 34.3754 31.8256V29.7464H32.0622H29.749V32.0601Z" fill="#FADDA7"/>
</g>
<defs>
<clipPath id="clip0_427_17051">
<rect width="44" height="44" fill="white"/>
</clipPath>
</defs>
</svg>
