<svg width="44" height="44" viewBox="0 0 44 44" fill="none" xmlns="http://www.w3.org/2000/svg">
<g clip-path="url(#clip0_427_17059)">
<circle cx="22" cy="22" r="22" fill="#F2EFFE"/>
<path fill-rule="evenodd" clip-rule="evenodd" d="M10.81 9.07808C9.92855 9.31548 9.24664 10.0206 9.06333 10.8841C8.97889 11.2819 8.97889 33.7044 9.06333 34.1021C9.24906 34.9771 9.93324 35.6765 10.8326 35.9108C11.289 36.0297 33.7045 36.0297 34.1609 35.9108C35.0518 35.6787 35.6788 35.0515 35.9108 34.1604C36.0297 33.7039 36.0297 11.2824 35.9108 10.8258C35.6766 9.92624 34.9773 9.24188 34.1026 9.0561C33.9004 9.01313 30.6888 8.99773 22.4546 9.00026C12.8453 9.00316 11.0432 9.01524 10.81 9.07808ZM11.0859 10.6528C10.8921 10.739 10.7162 10.9247 10.6414 11.1222C10.6035 11.2224 10.5852 12.5125 10.5852 15.0894V18.9082H13.7739H16.9626V17.9934C16.9626 17.1301 16.9694 17.0684 17.0823 16.8994C17.4038 16.418 18.0391 16.4302 18.4088 16.9249C18.507 17.0564 18.5191 17.1591 18.535 17.9892L18.5525 18.9082L22.567 18.9093C26.3668 18.9104 26.593 18.9157 26.7973 19.0085C27.3589 19.2636 27.3943 20.0579 26.8586 20.3846C26.7048 20.4784 26.5919 20.4894 25.7777 20.4895L24.8685 20.4898L24.8683 23.9825C24.8681 27.3746 24.8651 27.4801 24.7634 27.647C24.7058 27.7415 24.5814 27.8659 24.4869 27.9236C24.3266 28.0213 24.2193 28.0284 22.892 28.0284C21.5648 28.0284 21.4574 28.0213 21.2972 27.9236C20.7916 27.6152 20.7936 26.9605 21.3014 26.5838C21.4364 26.4837 21.5348 26.4719 22.3687 26.4559L23.2873 26.4384V23.4641V20.4898H16.9363H10.5852V23.4684V26.4471L13.0229 26.4485C15.2178 26.4498 15.48 26.4589 15.6558 26.5408C15.9015 26.6552 19.4618 29.8211 19.6005 30.0485C19.9815 30.6736 19.3017 31.451 18.6386 31.1485C18.5044 31.0872 17.7246 30.4308 16.7254 29.5379L15.0389 28.0307L12.8107 28.0297L10.5826 28.0287L10.5971 30.9508C10.6112 33.8084 10.614 33.8762 10.7202 34.0186C10.78 34.0986 10.8944 34.213 10.9744 34.2728L11.12 34.3815H22.4967H33.8735L34.019 34.2728C34.0991 34.213 34.2135 34.0986 34.2732 34.0185C34.3815 33.8735 34.382 33.8469 34.3957 27.1814L34.4095 20.4898L33.1044 20.4895C31.8951 20.4894 31.7867 20.4817 31.6276 20.3846C31.0919 20.0579 31.1273 19.2636 31.6889 19.0085C31.8797 18.9219 32.0503 18.9103 33.1575 18.9093L34.4103 18.9082L34.3961 15.0107C34.3821 11.1677 34.3804 11.1112 34.2732 10.9677C34.2135 10.8876 34.0991 10.7732 34.019 10.7135C33.8738 10.605 33.8573 10.6047 26.2087 10.591L18.5438 10.5773V11.4395C18.5438 12.2347 18.5345 12.3192 18.4239 12.5283C18.1367 13.0716 17.3878 13.0941 17.0678 12.569C16.974 12.4152 16.963 12.3023 16.9628 11.4878L16.9626 10.5784L14.1033 10.5804C11.8383 10.5821 11.2111 10.5971 11.0859 10.6528Z" fill="#D5CDFB"/>
</g>
<defs>
<clipPath id="clip0_427_17059">
<rect width="44" height="44" fill="white"/>
</clipPath>
</defs>
</svg>
