<svg width="63" height="63" viewBox="0 0 63 63" fill="none" xmlns="http://www.w3.org/2000/svg">
<circle cx="31.5" cy="31.5" r="31.5" fill="#FEF0EF"/>
<path d="M30.9375 45.875V43.4565C25.6602 43.1523 22.4541 40.4337 22.4375 36.3125H27.2188C27.3363 38.0616 28.8032 39.3971 30.9375 39.6328V33.125L29.1598 32.6602C25.109 31.7185 22.9415 29.3804 22.9415 25.8814C22.9415 21.7569 25.8959 19.0522 30.9375 18.6484V16.125H33.0625V18.6484C38.2017 19.0668 40.9648 21.8187 41.0312 25.6875H36.25C36.1995 24.0898 35.1988 22.8061 33.0625 22.6328V28.7422L35.1091 29.2256C39.4116 30.1673 41.5625 32.3945 41.5625 36.0469C41.5625 40.3195 38.6579 43.078 33.0625 43.4392V45.875H30.9375ZM30.9375 28.3438V22.6328C29.1054 22.7338 27.7985 23.8593 27.7985 25.4571C27.7985 26.9379 28.8869 27.9061 30.9375 28.3438ZM33.0625 33.5234V39.6328C35.5959 39.5306 36.8065 38.3764 36.8065 36.5934C36.8065 34.9611 35.5959 33.8621 33.0625 33.5234Z" fill="#FAA7A7"/>
</svg>
