<svg width="63" height="63" viewBox="0 0 63 63" fill="none" xmlns="http://www.w3.org/2000/svg">
<circle cx="31.5" cy="31.5" r="31.5" fill="#EFFAF1"/>
<path fill-rule="evenodd" clip-rule="evenodd" d="M19.8788 17.1059C18.79 17.3736 17.8399 18.2761 17.4378 19.4245C17.2805 19.8735 17.2797 19.8957 17.2592 23.9035L17.2386 27.9313L16.9914 28.1034C16.2156 28.6439 15.6786 29.8336 15.6758 31.0185L15.6745 31.5391L15.3672 31.6676C14.9245 31.8527 14.4168 32.3466 14.1932 32.8094L14.002 33.2053V37.7527V42.3L14.1825 42.6818C14.533 43.4233 15.0738 43.8326 15.9652 44.0312C16.1516 44.0727 16.153 44.0773 16.153 44.6455C16.153 45.5278 16.4355 45.9356 17.0869 45.9935C17.7982 46.0567 18.2016 45.5579 18.2016 44.6148V44.0703H31.4492H44.6968V44.611C44.6968 45.5546 45.0964 46.0569 45.7977 45.9949C46.4568 45.9365 46.7454 45.522 46.7454 44.6339C46.7454 44.0785 46.7472 44.0726 46.9332 44.0308C47.5743 43.8867 47.8152 43.7587 48.2189 43.3475C48.5064 43.0549 48.6711 42.818 48.7542 42.5777C48.8203 42.3868 48.9024 42.1764 48.9366 42.1101C49.025 41.9388 49.0191 33.2886 48.9306 33.3442C48.893 33.3678 48.8623 33.3365 48.8623 33.2746C48.8623 33.2127 48.7839 32.9936 48.6881 32.7878C48.4832 32.3472 47.9712 31.8516 47.5312 31.6676L47.2239 31.5391L47.2226 31.0185C47.2198 29.8339 46.6828 28.6439 45.9074 28.1038L45.6607 27.9319L45.6392 23.9038C45.6178 19.9008 45.6168 19.873 45.4602 19.4245C45.0427 18.2288 43.9956 17.2779 42.8608 17.064C42.6247 17.0195 38.5165 16.9967 31.3887 17.0004C21.9841 17.0053 20.2223 17.0215 19.8788 17.1059ZM20.1478 19.209C19.9975 19.2797 19.7913 19.4278 19.6895 19.5382C19.3001 19.9603 19.2942 20.0243 19.2942 23.8417V27.3389H19.9703H20.6464L20.6721 26.1414C20.6948 25.0821 20.7154 24.9043 20.8509 24.6022C21.0834 24.0833 21.4224 23.71 21.9004 23.4466L22.3329 23.2082H25.7131H29.0933L29.5258 23.4466C30.0038 23.71 30.3428 24.0833 30.5754 24.6022C30.7108 24.9043 30.7314 25.0821 30.7542 26.1414L30.7799 27.3389H31.4492H32.1185L32.1442 26.1414C32.167 25.0821 32.1876 24.9043 32.323 24.6022C32.5556 24.0833 32.8946 23.71 33.3726 23.4466L33.8051 23.2082H37.1853H40.5655L40.998 23.4466C41.476 23.71 41.815 24.0833 42.0476 24.6022C42.183 24.9043 42.2036 25.0821 42.2263 26.1414L42.252 27.3389H42.9281H43.6042V23.8803C43.6042 20.0384 43.5927 19.9196 43.1793 19.5129C42.7032 19.0444 43.5912 19.0772 31.4343 19.0789C20.86 19.0804 20.4101 19.0856 20.1478 19.209ZM22.7905 25.3395C22.7353 25.3956 22.7085 25.7123 22.7085 26.309C22.7085 27.1141 22.7206 27.2017 22.8406 27.2671C23.0214 27.3655 28.4048 27.3655 28.5857 27.2671C28.7057 27.2017 28.7177 27.1141 28.7177 26.309C28.7177 25.7123 28.691 25.3956 28.6358 25.3395C28.518 25.2197 22.9083 25.2197 22.7905 25.3395ZM34.2626 25.3395C34.2074 25.3956 34.1807 25.7123 34.1807 26.309C34.1807 27.1141 34.1927 27.2017 34.3127 27.2671C34.4936 27.3655 39.877 27.3655 40.0578 27.2671C40.1778 27.2017 40.1899 27.1141 40.1899 26.309C40.1899 25.7123 40.1631 25.3956 40.1079 25.3395C39.9901 25.2197 34.3804 25.2197 34.2626 25.3395ZM18.5772 29.5306C18.0075 29.8312 17.7274 30.3261 17.7251 31.0358L17.7236 31.5044H31.4492H45.1748L45.1733 31.0358C45.1723 30.7336 45.1277 30.4684 45.0474 30.2889C44.9139 29.9901 44.5137 29.5919 44.2409 29.4865C44.1394 29.4472 39.0887 29.4218 31.4277 29.4221C20.1149 29.4225 18.7605 29.4339 18.5772 29.5306ZM14 37.7527C14 40.1773 14.0085 41.1692 14.019 39.9569C14.0295 38.7445 14.0295 36.7607 14.019 35.5484C14.0085 34.3361 14 35.328 14 37.7527ZM16.0621 33.6333C16.037 33.6588 16.0164 35.5115 16.0164 37.7504C16.0164 40.8238 16.0365 41.8414 16.0984 41.9043C16.2275 42.0356 46.6986 42.0244 46.8059 41.893C46.8618 41.8245 46.8782 40.672 46.8654 37.7102L46.8478 33.6219L31.4778 33.6044C23.0243 33.5947 16.0872 33.6078 16.0621 33.6333Z" fill="#A9E3B2"/>
</svg>
