<svg width="44" height="44" viewBox="0 0 44 44" fill="none" xmlns="http://www.w3.org/2000/svg">
<g clip-path="url(#clip0_427_17083)">
<circle cx="22" cy="22" r="22" fill="#FEEFFD"/>
<path fill-rule="evenodd" clip-rule="evenodd" d="M20.8644 9.06567C20.6485 9.11464 20.3089 9.23518 20.1096 9.33356C19.5624 9.60363 11.6249 15.8673 11.2019 16.3628C10.7659 16.8735 10.4934 17.3351 10.2924 17.9033C10.0298 18.6452 9.98086 19.1215 10.0057 20.6909C10.031 22.2826 10.0797 22.5192 10.5039 23.1097C10.6221 23.2742 10.7188 23.4359 10.7188 23.4689C10.7188 23.5019 10.6221 23.6636 10.5039 23.8281C10.3857 23.9926 10.2294 24.2848 10.1567 24.4775C10.0245 24.827 10.0243 24.8363 10.0243 29.5684V34.3091L10.1933 34.6714C10.4151 35.147 10.8802 35.6141 11.3465 35.8296L11.7152 36H21.5904H31.4656L31.8632 35.8043C32.342 35.5685 32.7662 35.1366 32.9921 34.6544L33.154 34.3091L33.1724 29.7797C33.1852 26.66 33.1702 25.1428 33.1244 24.9046C33.0435 24.4837 32.8884 24.1224 32.6437 23.7846C32.5424 23.6448 32.4595 23.5027 32.4595 23.4689C32.4595 23.4351 32.5424 23.293 32.6437 23.1532C33.1297 22.4822 33.2024 22.0742 33.1693 20.204C33.142 18.672 33.1197 18.5115 32.8229 17.7184C32.6489 17.2533 32.1536 16.5081 31.7709 16.1353C31.598 15.9671 30.1808 14.8253 28.6215 13.5979C27.0621 12.3706 25.3243 11.0005 24.7597 10.5533C23.4904 9.54807 23.1252 9.30886 22.6201 9.15197C22.0933 8.98837 21.3636 8.95249 20.8644 9.06567ZM21.1406 10.9938C21.0101 11.0423 20.8199 11.1433 20.7178 11.2183C19.9449 11.7864 13.0365 17.2664 12.7843 17.5115C12.4219 17.8635 12.0914 18.4667 11.9881 18.9646C11.9458 19.1682 11.9269 19.7867 11.9383 20.5916C11.9586 22.0162 11.9654 22.044 12.3726 22.3479C12.5393 22.4724 12.5431 22.4724 21.5891 22.4724C30.6351 22.4724 30.639 22.4724 30.8057 22.3479C31.2128 22.044 31.2197 22.0162 31.24 20.5916C31.2514 19.7867 31.2325 19.1682 31.1902 18.9646C31.0871 18.468 30.7563 17.8637 30.394 17.5102C29.9683 17.0948 22.5301 11.2355 22.2306 11.0796C21.9228 10.9193 21.4428 10.8815 21.1406 10.9938ZM12.5003 24.5201C12.2781 24.6192 12.0767 24.832 11.991 25.0581C11.9476 25.1728 11.9266 26.6391 11.9266 29.5629C11.9266 33.6858 11.932 33.9027 12.0371 33.9977C12.1388 34.0898 12.889 34.0977 21.5996 34.0977C30.7196 34.0977 31.0553 34.0938 31.1529 33.986C31.2458 33.8833 31.2527 33.5172 31.2377 29.4611C31.2217 25.1108 31.2197 25.0455 31.097 24.8811C31.0285 24.7894 30.8974 24.6584 30.8057 24.5899C30.6392 24.4655 30.6243 24.4653 21.6602 24.4523C14.2694 24.4415 12.6494 24.4536 12.5003 24.5201ZM19.9233 25.7892C19.8208 25.8338 19.6781 25.9451 19.6062 26.0365C19.476 26.2021 19.4755 26.2162 19.4755 29.2699V32.3371L19.6284 32.5189C19.9533 32.905 20.511 32.883 20.7867 32.4733C20.9085 32.2924 20.9248 32.1941 20.9248 31.6429V31.0178H21.742C22.897 31.0178 23.4291 30.8251 24.0425 30.1848C25.0192 29.1655 24.9868 27.523 23.9699 26.5061C23.5947 26.1309 23.043 25.8482 22.5184 25.7623C21.97 25.6725 20.1479 25.6914 19.9233 25.7892ZM20.9248 28.3907V29.5684L21.574 29.568C21.9311 29.5678 22.3243 29.5396 22.4478 29.5053C22.918 29.3748 23.2801 28.8926 23.2801 28.3971C23.2801 28.0461 23.1964 27.8339 22.9593 27.5834C22.6602 27.2673 22.4689 27.2131 21.6515 27.2131H20.9248V28.3907Z" fill="#F4A7F9"/>
</g>
<defs>
<clipPath id="clip0_427_17083">
<rect width="44" height="44" fill="white"/>
</clipPath>
</defs>
</svg>
