<svg width="44" height="44" viewBox="0 0 44 44" fill="none" xmlns="http://www.w3.org/2000/svg">
<g clip-path="url(#clip0_427_17080)">
<circle cx="22" cy="22" r="22" fill="#FEF0EF"/>
<path fill-rule="evenodd" clip-rule="evenodd" d="M20.7656 9.08564C20.3259 9.24507 20.6865 8.95335 13.2795 15.1412C7.56579 19.9144 8.00828 19.4961 8.00779 20.1254C8.00729 20.6935 8.30716 21.0826 8.86023 21.2315C9.21464 21.3269 9.58916 21.2271 9.94864 20.9414L10.2217 20.7244L10.2569 26.1959L10.292 31.6675L10.509 32.1244C10.7954 32.7275 11.2669 33.2021 11.8578 33.482L12.3305 33.706L16.8874 33.725L21.4443 33.7441L21.8513 33.5615C22.3153 33.3532 22.7523 32.9373 22.9915 32.4758C23.155 32.1607 23.1557 32.1478 23.1754 29.14C23.1929 26.4704 23.2084 26.1059 23.3093 25.9944C23.4103 25.8827 23.5575 25.8683 24.5966 25.8683C25.6439 25.8683 25.7823 25.8821 25.8861 25.9969C25.9904 26.1122 26.0024 26.4261 26.0021 29.0371C26.0018 31.6351 26.015 31.986 26.1251 32.2954C26.3004 32.788 26.8146 33.3248 27.3351 33.5584C27.7591 33.7487 27.7622 33.749 29.2184 33.7275L30.6769 33.706L31.148 33.4829C31.7472 33.199 32.2084 32.7378 32.4923 32.1385L32.7154 31.6675L32.7506 26.1959L32.7857 20.7244L33.0588 20.9414C33.4183 21.2271 33.7928 21.3269 34.1472 21.2315C34.6951 21.0839 34.9999 20.6936 34.9999 20.1395C34.9999 19.5248 35.0555 19.5816 31.8368 16.9018C30.5416 15.8235 28.7896 14.3615 27.9433 13.6528C22.1169 8.77375 22.4227 8.99454 21.5037 9.00382C21.2138 9.00678 20.8816 9.04354 20.7656 9.08564ZM16.9514 15.0932L12.5069 18.8039L12.5065 24.5543C12.5063 28.478 12.5306 30.4017 12.583 30.6096C12.6785 30.989 13.0277 31.3403 13.3939 31.4253C13.5436 31.46 15.2507 31.4892 17.1874 31.4901C20.5107 31.4917 20.7152 31.4845 20.825 31.3632C20.9294 31.2479 20.9413 30.934 20.941 28.323C20.9406 24.899 20.9297 24.9649 21.6085 24.2861C22.2539 23.6407 22.3543 23.6183 24.5966 23.6183C26.8389 23.6183 26.9393 23.6407 27.5847 24.2861C28.2629 24.9642 28.2526 24.9026 28.2522 28.2953C28.2518 31.6725 28.215 31.4927 28.906 31.4901C29.1455 31.4892 29.4652 31.4597 29.6166 31.4246C29.9732 31.3418 30.3513 30.9638 30.434 30.6071C30.4694 30.4544 30.4985 27.7671 30.4992 24.5679L30.5006 18.8039L26.081 15.1135C23.6503 13.0838 21.6017 11.414 21.5287 11.4028C21.44 11.3893 19.9219 12.6132 16.9514 15.0932ZM14.9084 20.4076C14.7582 20.5675 14.7556 20.6078 14.7556 22.7853V25.0003L14.9183 25.1532C15.0758 25.3011 15.1336 25.306 16.7337 25.306C18.3703 25.306 18.3878 25.3044 18.5392 25.1433C18.6894 24.9833 18.692 24.9431 18.692 22.7656V20.5506L18.5294 20.3977C18.3718 20.2498 18.314 20.2449 16.714 20.2449C15.0773 20.2449 15.0598 20.2465 14.9084 20.4076Z" fill="#FAA7A7"/>
</g>
<defs>
<clipPath id="clip0_427_17080">
<rect width="44" height="44" fill="white"/>
</clipPath>
</defs>
</svg>
