<svg width="44" height="44" viewBox="0 0 44 44" fill="none" xmlns="http://www.w3.org/2000/svg">
<g clip-path="url(#clip0_427_17077)">
<circle cx="22" cy="22" r="22" fill="#EFFAF1"/>
<g clip-path="url(#clip1_427_17077)">
<path fill-rule="evenodd" clip-rule="evenodd" d="M15.4492 9.07584C15.2677 9.11682 14.9477 9.23351 14.7383 9.33512C14.3773 9.51022 14.231 9.64621 11.9386 11.9386C9.64454 14.2327 9.51028 14.3771 9.33539 14.7383C8.98322 15.4657 9.00176 14.9493 9.00176 24.0313C9.00176 31.0509 9.01247 32.2837 9.07635 32.5879C9.31528 33.7257 10.2743 34.6847 11.4121 34.9236C11.9402 35.0345 20.2785 35.0345 20.8066 34.9236C21.9468 34.6843 22.903 33.7281 23.1424 32.5879C23.2062 32.2837 23.217 31.0509 23.217 24.0313C23.217 14.948 23.2355 15.465 22.8829 14.7383C22.7082 14.3785 22.5676 14.2266 20.3379 11.9897C17.8351 9.47863 17.6952 9.35869 17.0234 9.14744C16.5885 9.01063 15.8804 8.97844 15.4492 9.07584ZM27.2304 9.07584C27.0489 9.11682 26.729 9.23412 26.5195 9.33645C26.179 9.50275 26.0157 9.64418 24.9791 10.6704C24.3413 11.3018 23.7757 11.9032 23.7222 12.0068C23.34 12.7471 24.0576 13.6148 24.8828 13.4102C25.0998 13.3563 25.2314 13.2437 26.2419 12.2466C27.2103 11.2912 27.3913 11.1345 27.5871 11.0817C27.8632 11.0074 28.2052 11.0482 28.4177 11.1808C28.5049 11.2352 29.5397 12.2464 30.7173 13.4279C32.5761 15.2929 32.8657 15.604 32.9142 15.787C32.9538 15.9369 32.9661 18.3485 32.9566 24.1405L32.9433 32.2832L32.8228 32.4771C32.7566 32.5837 32.6097 32.7322 32.4965 32.8071L32.2907 32.9434L28.7576 32.9688L25.2246 32.9942L24.9883 33.133C24.8129 33.2362 24.718 33.3401 24.6201 33.5366C24.4505 33.8769 24.453 34.1083 24.6296 34.4466C24.7441 34.6657 24.8226 34.7442 25.0417 34.8586L25.3123 35L28.7724 34.9992C32.6255 34.9981 32.6429 34.9969 33.3231 34.6621C33.8455 34.405 34.4049 33.8456 34.6621 33.3231C35.017 32.602 34.9982 33.1206 34.9982 24.0313C34.9982 14.948 35.0168 15.465 34.6641 14.7383C34.4895 14.3785 34.3488 14.2266 32.1192 11.9897C29.6163 9.47863 29.4765 9.35869 28.8047 9.14744C28.3698 9.01063 27.6617 8.97844 27.2304 9.07584ZM15.7539 11.0876C15.5188 11.1579 11.2834 15.3671 11.1307 15.6823C11.0314 15.8872 11.0302 16.0044 11.0433 24.0904L11.0566 32.2906L11.1929 32.4965C11.2678 32.6097 11.4163 32.7566 11.5229 32.8229L11.7168 32.9434H16.1131H20.5093L20.7152 32.8071C20.8284 32.7322 20.9753 32.5837 21.0416 32.4771L21.1621 32.2832L21.1754 24.1405C21.1848 18.3485 21.1726 15.9369 21.1329 15.787C21.0845 15.604 20.7948 15.2929 18.936 13.4279C17.7584 12.2464 16.7211 11.2336 16.6308 11.1773C16.4373 11.0566 16.0055 11.0124 15.7539 11.0876ZM13.7333 14.945C13.495 15.018 13.1805 15.3517 13.1127 15.6036C13.076 15.7399 13.0616 16.2483 13.0719 17.0447L13.0879 18.2753L13.2241 18.481C13.4339 18.7979 13.6822 18.9278 14.0781 18.9278C14.4741 18.9278 14.7223 18.7979 14.9321 18.4809L15.0683 18.275V16.9256C15.0683 15.5938 15.0668 15.5737 14.9478 15.3824C14.7083 14.9971 14.1822 14.8077 13.7333 14.945ZM17.7958 14.945C17.5575 15.018 17.243 15.3517 17.1752 15.6036C17.1385 15.7399 17.1241 16.2483 17.1344 17.0447L17.1504 18.2753L17.2866 18.481C17.4964 18.7979 17.7447 18.9278 18.1406 18.9278C18.5366 18.9278 18.7848 18.7979 18.9946 18.4809L19.1308 18.275V16.9256C19.1308 15.5938 19.1293 15.5737 19.0103 15.3824C18.7708 14.9971 18.2447 14.8077 17.7958 14.945ZM25.5146 14.945C25.2763 15.018 24.9618 15.3517 24.894 15.6036C24.8573 15.7399 24.8429 16.2483 24.8532 17.0447L24.8691 18.2753L25.0054 18.481C25.2152 18.7979 25.4635 18.9278 25.8594 18.9278C26.2553 18.9278 26.5036 18.7979 26.7133 18.4809L26.8496 18.275V16.9256C26.8496 15.5938 26.848 15.5737 26.7291 15.3824C26.4896 14.9971 25.9635 14.8077 25.5146 14.945ZM29.5771 14.945C29.3388 15.018 29.0243 15.3517 28.9565 15.6036C28.9198 15.7399 28.9054 16.2483 28.9157 17.0447L28.9316 18.2753L29.0679 18.481C29.2777 18.7979 29.526 18.9278 29.9219 18.9278C30.3178 18.9278 30.5661 18.7979 30.7758 18.4809L30.9121 18.275V16.9256C30.9121 15.5938 30.9105 15.5737 30.7916 15.3824C30.5521 14.9971 30.026 14.8077 29.5771 14.945ZM13.7333 21.0388C13.495 21.1117 13.1805 21.4454 13.1127 21.6974C13.076 21.8336 13.0616 22.3421 13.0719 23.1385L13.0879 24.3691L13.2241 24.5748C13.4339 24.8917 13.6822 25.0215 14.0781 25.0215C14.4741 25.0215 14.7223 24.8916 14.9321 24.5746L15.0683 24.3688V23.0194C15.0683 21.6875 15.0668 21.6674 14.9478 21.4761C14.7083 21.0909 14.1822 20.9014 13.7333 21.0388ZM17.7958 21.0388C17.5575 21.1117 17.243 21.4454 17.1752 21.6974C17.1385 21.8336 17.1241 22.3421 17.1344 23.1385L17.1504 24.3691L17.2866 24.5748C17.4964 24.8917 17.7447 25.0215 18.1406 25.0215C18.5366 25.0215 18.7848 24.8916 18.9946 24.5746L19.1308 24.3688V23.0194C19.1308 21.6875 19.1293 21.6674 19.0103 21.4761C18.7708 21.0909 18.2447 20.9014 17.7958 21.0388ZM25.5146 21.0388C25.2763 21.1117 24.9618 21.4454 24.894 21.6974C24.8573 21.8336 24.8429 22.3421 24.8532 23.1385L24.8691 24.3691L25.0054 24.5748C25.2152 24.8917 25.4635 25.0215 25.8594 25.0215C26.2553 25.0215 26.5036 24.8916 26.7133 24.5746L26.8496 24.3688V23.0194C26.8496 21.6875 26.848 21.6674 26.7291 21.4761C26.4896 21.0909 25.9635 20.9014 25.5146 21.0388ZM29.5771 21.0388C29.3388 21.1117 29.0243 21.4454 28.9565 21.6974C28.9198 21.8336 28.9054 22.3421 28.9157 23.1385L28.9316 24.3691L29.0679 24.5748C29.2777 24.8917 29.526 25.0215 29.9219 25.0215C30.3178 25.0215 30.5661 24.8916 30.7758 24.5746L30.9121 24.3688V23.0194C30.9121 21.6875 30.9105 21.6674 30.7916 21.4761C30.5521 21.0909 30.026 20.9014 29.5771 21.0388ZM15.3579 27.1808C14.8127 27.3237 14.4099 27.5594 13.9719 27.9922C13.5236 28.4352 13.2704 28.8905 13.1357 29.4963C12.9741 30.2224 13.1133 30.7207 13.5542 30.9948C13.7063 31.0893 13.819 31.1153 14.0781 31.1153C14.6714 31.1153 15.0068 30.7904 15.089 30.1362C15.1431 29.7048 15.2768 29.4624 15.566 29.271C15.7369 29.1579 15.8285 29.1348 16.1056 29.1348C16.7048 29.1348 17.0293 29.4499 17.125 30.125C17.2207 30.8001 17.5451 31.1153 18.1443 31.1153C18.4214 31.1153 18.5131 31.0921 18.684 30.979C19.1088 30.6978 19.2363 30.2332 19.0854 29.5156C18.8401 28.3491 17.8952 27.3962 16.7441 27.1545C16.268 27.0546 15.8064 27.0633 15.3579 27.1808ZM27.1391 27.1808C26.5939 27.3237 26.1912 27.5594 25.7532 27.9922C25.3049 28.4352 25.0517 28.8905 24.9169 29.4963C24.7554 30.2224 24.8946 30.7207 25.3354 30.9948C25.4876 31.0893 25.6003 31.1153 25.8594 31.1153C26.4526 31.1153 26.7881 30.7904 26.8702 30.1362C26.9244 29.7048 27.058 29.4624 27.3472 29.271C27.5181 29.1579 27.6098 29.1348 27.8869 29.1348C28.4861 29.1348 28.8105 29.4499 28.9062 30.125C29.002 30.8001 29.3264 31.1153 29.9256 31.1153C30.2027 31.1153 30.2943 31.0921 30.4652 30.979C30.8901 30.6978 31.0176 30.2332 30.8666 29.5156C30.6213 28.3491 29.6764 27.3962 28.5254 27.1545C28.0492 27.0546 27.5876 27.0633 27.1391 27.1808Z" fill="#A9E3B2"/>
</g>
</g>
<defs>
<clipPath id="clip0_427_17077">
<rect width="44" height="44" fill="white"/>
</clipPath>
<clipPath id="clip1_427_17077">
<rect width="26" height="26" fill="white" transform="translate(9 9)"/>
</clipPath>
</defs>
</svg>
